<?xml version="1.0" standalone="no"?><svg xmlns="http://www.w3.org/2000/svg" viewBox="0 0 1440 320"><path fill="#00B4BF" fill-opacity="0.85" d="M0,224L40,202.7C80,181,160,139,240,144C320,149,400,203,480,234.7C560,267,640,277,720,277.3C800,277,880,267,960,234.7C1040,203,1120,149,1200,138.7C1280,128,1360,160,1400,176L1440,192L1440,320L1400,320C1360,320,1280,320,1200,320C1120,320,1040,320,960,320C880,320,800,320,720,320C640,320,560,320,480,320C400,320,320,320,240,320C160,320,80,320,40,320L0,320Z"></path></svg>