<?xml version="1.0" standalone="no"?><svg xmlns="http://www.w3.org/2000/svg" viewBox="0 0 1440 320"><path fill="#00B4BF" fill-opacity="1" d="M0,256L34.3,250.7C68.6,245,137,235,206,245.3C274.3,256,343,288,411,298.7C480,309,549,299,617,288C685.7,277,754,267,823,240C891.4,213,960,171,1029,128C1097.1,85,1166,43,1234,64C1302.9,85,1371,171,1406,213.3L1440,256L1440,320L1405.7,320C1371.4,320,1303,320,1234,320C1165.7,320,1097,320,1029,320C960,320,891,320,823,320C754.3,320,686,320,617,320C548.6,320,480,320,411,320C342.9,320,274,320,206,320C137.1,320,69,320,34,320L0,320Z"></path></svg>